<svg width="20" height="20" viewBox="0 0 20 20" fill="none" xmlns="http://www.w3.org/2000/svg">
<path d="M1.00641 8.58674C0.990938 8.53475 1.00403 8.47944 1.03975 8.4363C1.07546 8.39426 1.13021 8.36993 1.18854 8.37103C1.66469 8.38099 2.31106 8.53033 3.12766 8.81904L3.13361 8.82125C3.81213 9.08342 4.37873 9.38541 4.83345 9.72612C4.84655 9.73607 4.85607 9.74935 4.86559 9.76152C4.97868 9.77147 5.087 9.78032 5.19769 9.78032C5.34887 9.78032 5.50956 9.76373 5.69051 9.71395C5.52743 9.29358 5.84526 8.6542 6.64756 7.7958L6.65113 7.79138C7.48321 6.9551 8.35813 6.39314 9.2759 6.10443C9.87465 5.89868 10.4318 5.77701 10.9448 5.73716C11.1388 5.72278 11.3603 5.72942 11.609 5.75708L11.5936 5.75597C11.7162 5.7604 11.9912 5.80464 12.4197 5.88871C12.4768 5.89646 12.5149 5.89978 12.5423 5.90199L13.0422 5.53693C13.0875 5.50374 13.147 5.49158 13.2029 5.50596C13.2589 5.51923 13.3041 5.55684 13.3267 5.60662C13.5005 6.00484 13.6053 6.4783 13.641 7.02587C13.641 7.02808 13.6398 7.02919 13.6398 7.0314C14.2338 7.13981 14.8087 7.30795 15.3253 7.53695C16.9181 8.24161 17.9513 9.49494 18.9535 10.7106L18.9618 10.7206C18.9928 10.7582 19.0059 10.8058 18.9975 10.8511C18.9892 10.8976 18.9618 10.9385 18.9202 10.9651C18.2214 11.4075 17.5191 11.8533 16.8442 12.2416C16.1609 12.6354 15.4967 12.9761 14.1896 13.1675C14.1194 13.1775 14.0099 13.2593 14.0111 13.3002C14.0337 14.0934 13.523 14.8146 12.5672 15.4673C12.5231 15.4971 12.4672 15.5071 12.4136 15.4949C12.36 15.4828 12.316 15.4496 12.2922 15.4031C12.2862 15.3909 12.2803 15.381 12.2755 15.3721C12.272 15.3666 12.2672 15.3578 12.2636 15.35C12.2339 15.2936 12.2267 15.2427 12.2065 15.131C12.1505 14.8135 12.091 14.5159 12.0327 14.2372C12.0029 14.0956 11.9946 13.9927 11.9982 13.9374C11.9982 13.9308 11.9994 13.923 12.0006 13.9142C12.0041 13.8943 12.0089 13.8666 12.0184 13.8367C12.0291 13.8058 12.047 13.7671 12.0815 13.7317C12.2541 13.5536 12.3434 13.4474 12.3708 13.402C12.391 13.3677 12.4053 13.3378 12.4196 13.308C12.272 13.3124 12.1243 13.3157 11.9756 13.3157C11.3673 13.3157 10.7507 13.2803 10.1924 13.2007C9.98049 13.6664 9.77931 13.9883 9.58885 14.1564C9.57933 14.1653 9.56861 14.173 9.55671 14.1797C9.52814 14.1963 9.49362 14.2062 9.45434 14.2106C9.34363 14.2228 9.06269 14.1863 8.60919 14.1011C8.26279 14.0392 8.01876 13.9761 7.87115 13.9131C7.54143 13.8069 7.03788 13.2781 6.36058 12.3246C6.16774 12.1088 6.12488 11.8976 6.22726 11.6885C6.06775 11.6664 5.90704 11.6553 5.74635 11.6553C5.50828 11.6553 5.27021 11.6741 5.02618 11.6951C5.02141 11.7117 5.01665 11.7294 5.00594 11.7449C4.28219 12.8223 3.45728 13.4108 2.52997 13.5082C2.50259 13.5115 2.47402 13.5082 2.44783 13.4993C2.36213 13.4706 2.31451 13.4075 2.30618 13.3102C2.30142 13.2527 2.31332 13.1675 2.33951 13.0513L2.34189 13.0436C2.46569 12.6133 2.5633 12.3102 2.63592 12.1321C2.81328 11.6487 3.01208 11.2305 3.23228 10.8743C3.21442 10.8555 3.193 10.8323 3.16443 10.8046C2.42996 10.1321 1.83359 9.5535 1.3753 9.069C1.1646 8.85439 1.0432 8.69621 1.00986 8.59333C1.00867 8.59001 1.00867 8.58779 1.00748 8.58448L1.00641 8.58674Z" fill="#A70A2D"/>
</svg>
