<svg width="20" height="20" viewBox="0 0 20 20" fill="none" xmlns="http://www.w3.org/2000/svg">
<path d="M14.4852 1.87506C14.5129 1.87351 14.5524 1.91 14.6577 2.021C14.8333 2.2073 14.8729 2.2104 14.9053 2.03963C14.9409 1.85566 15.0216 1.88438 15.13 2.11725C15.1743 2.21273 15.2273 2.3051 15.2479 2.3214C15.2906 2.35633 15.3555 2.33925 15.3761 2.28802C15.4125 2.19487 15.5193 2.28336 15.5802 2.45801C15.6079 2.53719 15.6419 2.58299 15.6917 2.60861C15.8199 2.67381 15.8508 2.76851 15.8508 3.08988V3.37786L15.9678 3.46868C16.1055 3.5758 16.1751 3.65886 16.225 3.77763C16.2614 3.86224 16.2606 3.86457 16.206 3.86457C16.1743 3.86457 16.1102 3.85293 16.062 3.83973C15.9734 3.81411 15.5976 3.79937 15.5762 3.8211C15.5699 3.82731 15.581 3.87233 15.6023 3.92046C15.7068 4.16653 15.558 4.50497 15.2985 4.6121C15.1688 4.66566 14.9718 4.65402 14.8499 4.58571L14.7439 4.52594V4.58105C14.7439 4.69981 15.2566 6.6342 15.4939 7.4104C15.7811 8.35121 15.8729 8.76572 15.9101 9.2889C15.9971 10.5115 15.5715 11.6425 14.721 12.4513C14.5232 12.6384 14.1925 12.8837 13.8736 13.0785C13.3182 13.4177 13.1608 13.5667 12.804 14.0899C12.3364 14.7761 12.0207 15.068 11.4606 15.3304C11.2256 15.4406 11.0706 15.5555 11.0365 15.6432C11.0073 15.7185 11.2201 16.5561 11.3388 16.8363C11.4685 17.1414 11.6497 17.2857 11.9045 17.2865C11.9503 17.2865 12.0722 17.2531 12.1766 17.2128C12.3792 17.1328 12.4867 17.1328 12.5295 17.2112C12.5485 17.2469 12.5374 17.2617 12.467 17.2943C12.3467 17.3509 12.3562 17.3905 12.4868 17.3742C12.9749 17.3121 13.1142 17.2997 13.2811 17.3036C13.5327 17.3098 13.6648 17.3781 13.7107 17.5256C13.7273 17.5776 13.7234 17.5799 13.6577 17.5621C13.4789 17.5132 12.9203 17.5931 13.0722 17.6459C13.1521 17.6746 13.2534 17.7864 13.2771 17.8749C13.3096 17.9929 13.289 18.0371 13.2273 17.9828C13.1585 17.9215 13.0572 17.902 12.3285 17.812C11.9155 17.7608 11.5896 17.708 11.501 17.6785C11.3206 17.6172 11.3072 17.6172 11.2344 17.6746L11.1766 17.7204L11.2439 17.8516C11.3087 17.9766 11.3301 18.0899 11.2961 18.1233C11.2874 18.1318 11.2502 18.1078 11.2138 18.0689C11.126 17.9773 11.0215 17.9517 10.603 17.9215C10.0666 17.8819 9.68053 17.8283 9.42419 17.7584L9.19081 17.694L9.10536 17.7957C9.0571 17.8516 8.99776 17.8966 8.97007 17.8966C8.89175 17.8966 8.83399 17.9378 8.77624 18.034C8.7264 18.1163 8.71848 18.121 8.68288 18.0852C8.66073 18.0643 8.63778 17.9921 8.63146 17.9253C8.62038 17.8105 8.62513 17.7988 8.72165 17.6956C8.80709 17.6048 8.8245 17.5691 8.8245 17.4875C8.8245 17.2842 8.78336 17.2679 8.60772 17.399C8.4661 17.5054 8.40281 17.531 8.27939 17.531C8.17733 17.531 8.02859 17.4883 8.02859 17.4588C8.02859 17.4146 8.13302 17.3556 8.28334 17.3144C8.421 17.2772 8.4748 17.2446 8.63383 17.1025C8.74934 17.0008 8.82687 16.9108 8.83399 16.8728L8.97324 15.7278C8.97324 15.6137 8.95741 15.5687 8.84507 15.3785C8.70899 15.1472 8.66943 15.1146 8.44157 15.0494C8.37195 15.0292 8.23033 14.971 8.12827 14.9198C8.02542 14.8685 7.87431 14.7956 7.79283 14.7583C7.70422 14.7179 7.58397 14.6325 7.49773 14.5487C7.41703 14.4711 7.34108 14.4067 7.32842 14.4067C7.31655 14.4067 7.28174 14.357 7.25168 14.2964C7.21133 14.2142 7.18443 14.1878 7.14803 14.1924C7.08553 14.201 6.99059 14.0698 6.97081 13.9463C6.95262 13.833 6.85926 13.6529 6.80309 13.6234C6.7754 13.6079 6.75957 13.5706 6.75957 13.5179C6.75957 13.4558 6.75008 13.4371 6.71764 13.4395C6.66068 13.4441 6.63615 13.3021 6.65435 13.0808C6.66701 12.9271 6.66463 12.9147 6.62033 12.9225C6.58077 12.9295 6.57365 12.9163 6.57602 12.8379C6.57998 12.7253 6.64248 12.5786 6.75245 12.4241C6.79755 12.3605 6.83473 12.2984 6.83473 12.2867C6.83473 12.2759 6.77223 12.2588 6.69628 12.2503C6.52934 12.2308 6.44232 12.1796 6.43203 12.0942C6.42491 12.036 6.40988 12.0282 6.25006 12.0011C6.00242 11.9592 5.84183 11.8854 5.8078 11.7977C5.79277 11.7589 5.74688 11.7115 5.70416 11.6914C5.57124 11.6285 5.37661 11.4624 5.3339 11.3739C5.28089 11.2644 5.28089 11.1154 5.33311 11.0416C5.35526 11.0106 5.41222 10.9694 5.4589 10.95C5.50637 10.9306 5.54039 10.9019 5.53485 10.8864C5.52932 10.8709 5.41934 10.7987 5.29039 10.7257C4.87819 10.4936 4.6092 10.2716 4.38768 9.98206C4.27454 9.8338 4.26663 9.72434 4.36316 9.64983C4.43753 9.59238 4.61791 9.58229 4.77852 9.62576C4.90194 9.65914 4.9233 9.63741 4.82124 9.58152C4.21758 9.2516 3.75 8.79441 3.75 8.53437C3.75 8.44277 3.75949 8.42414 3.82358 8.39154C3.92801 8.33876 4.00792 8.34574 4.24684 8.42725C4.36235 8.46684 4.46046 8.49556 4.4652 8.4909C4.46915 8.48702 4.40823 8.43191 4.32912 8.36903C4.14082 8.21922 3.88528 7.93279 3.81011 7.7884C3.72704 7.62771 3.73021 7.49574 3.81882 7.42667C3.87657 7.38087 3.90901 7.37544 4.03638 7.38553C4.12262 7.39252 4.24605 7.42589 4.3299 7.46393C4.40981 7.50041 4.48022 7.52448 4.48655 7.51827C4.49288 7.51206 4.41139 7.41658 4.30537 7.30713C4.08147 7.07425 3.93115 6.86311 3.90901 6.74978C3.8742 6.5697 3.99999 6.4587 4.21045 6.48197C4.33703 6.49594 4.34573 6.47887 4.26899 6.3733C4.19146 6.26618 4.1788 6.10393 4.24209 6.02476L4.29273 5.96189L4.20807 5.80198C4.06171 5.52642 4.09731 5.31916 4.30697 5.22212C4.42327 5.16778 4.7342 5.17089 4.96047 5.22833C5.53961 5.37582 6.01667 5.66768 6.51669 6.18001C6.883 6.55571 7.14725 6.94305 7.44711 7.5431C7.73589 8.12219 7.75092 8.13926 8.09033 8.29372C8.39019 8.43112 8.73592 8.47303 9.20982 8.42956C10.073 8.35194 10.872 8.08413 11.2407 7.74957C11.6861 7.34436 11.8926 6.86931 12.1062 5.75543C12.2834 4.83016 12.4068 4.41641 12.6363 3.97706C12.944 3.3879 13.3895 2.96018 13.8966 2.76846C14.0058 2.72654 14.1126 2.69316 14.1324 2.69316C14.2067 2.69316 14.2004 2.63727 14.1165 2.55033C13.9821 2.41138 13.948 2.34851 13.948 2.23906C13.948 2.03724 14.0999 1.97202 14.3167 2.08071C14.3729 2.10865 14.4259 2.13194 14.4338 2.13194C14.4417 2.13194 14.4417 2.08459 14.433 2.02637C14.4204 1.94486 14.4259 1.91381 14.4583 1.88742C14.467 1.88043 14.4757 1.87584 14.4852 1.87506ZM10.2445 15.3756L10.0633 15.4501C9.96281 15.4905 9.78401 15.5533 9.66453 15.5883C9.54586 15.624 9.44142 15.6636 9.43352 15.676C9.40108 15.728 9.34174 16.3172 9.33858 16.6277C9.33462 16.911 9.34095 16.9692 9.3813 17.043C9.50789 17.2696 9.63526 17.3635 9.87973 17.407C10.1076 17.4474 10.1954 17.4396 10.2745 17.3721C10.3125 17.3387 10.3742 17.3053 10.4114 17.2976C10.5443 17.2688 10.6052 17.2347 10.7366 17.1128L10.8703 16.9886L10.856 16.8504C10.8473 16.7751 10.8244 16.6579 10.8046 16.5912C10.784 16.5244 10.7397 16.3335 10.7041 16.1666C10.6258 15.794 10.5823 15.7032 10.3932 15.52L10.2445 15.3756ZM10.8719 17.3356C10.8307 17.3356 10.614 17.4916 10.6219 17.5157C10.6274 17.5312 10.6654 17.5467 10.7073 17.5506C10.7658 17.5561 10.7959 17.5429 10.8363 17.4924C10.8861 17.4303 10.9075 17.3356 10.8719 17.3356Z" fill="#A70A2D"/>
</svg>
