<svg width="20" height="20" viewBox="0 0 20 20" fill="none" xmlns="http://www.w3.org/2000/svg">
<path d="M2.61558 15.346C2.81473 15.5299 3.03638 15.6672 3.25804 15.7821V18.125H2.61558V15.3449V15.346ZM19.8609 6.27192L17.356 3.30896C17.2676 3.1941 17.1343 3.125 17.0009 3.125H16.181C16.026 3.125 15.871 3.23986 15.8043 3.40048C15.8043 3.44625 15.7602 3.51534 15.7377 3.58444C15.5602 3.42381 15.206 3.17076 14.8285 3.17076C14.2518 3.17076 13.7869 3.72172 13.7869 3.72172C13.7869 3.72172 14.2527 4.27269 14.8285 4.27269C15.4052 4.27269 15.3601 4.15783 15.5376 4.01963C15.2051 4.61727 14.5843 5.30644 13.476 5.30644L3.96727 5.30734C1.77319 5.30734 0 7.14512 0 9.41891V13.9219H0.642459V9.41891C0.642459 8.10968 1.35159 6.96111 2.39322 6.36337C1.66156 7.07588 1.21824 8.08629 1.21824 9.21147V18.1015H1.8607V13.9208H3.10235C3.27985 13.9208 3.45736 13.9208 3.61234 13.875C3.74569 13.875 3.87816 13.8293 4.03314 13.7835C4.49898 13.6453 4.9423 13.3931 5.31895 13.0252C5.98393 12.3818 6.36057 11.4863 6.36057 10.5674H6.84805C6.84805 11.5321 6.49304 12.4743 5.85058 13.1858L11.9021 14.0813C11.6363 14.3568 11.4813 14.7472 11.4813 15.1842V18.1249H12.1238V15.1842C12.1238 14.679 12.5004 14.2653 12.9663 14.242H13.1438C13.0104 14.5174 12.9221 14.7929 12.9221 15.0918V18.1239H13.5646V15.0918C13.5646 14.7705 13.7195 14.4717 13.9854 14.2877C15.2712 14.0813 16.2461 12.9327 16.2461 11.5311V9.46356C16.2461 8.31494 17.1327 7.39605 18.241 7.39605H19.2826C19.416 7.39605 19.5268 7.32696 19.5926 7.23543L19.9251 6.70688C20.0359 6.56869 20.0134 6.3623 19.9251 6.24744H19.8809L19.8609 6.27192ZM5.36394 13.6465C5.29727 13.6922 5.25311 13.738 5.18644 13.7847C4.60977 14.175 3.94479 14.4047 3.25818 14.4281H2.48237C2.52653 14.4972 2.57069 14.5663 2.61571 14.6345C2.79321 14.8642 3.01487 15.0706 3.25817 15.2321C3.63481 15.4852 4.10065 15.6224 4.56561 15.6224C5.03145 15.6224 5.69643 15.4161 6.13975 15.0481C6.49476 14.7493 6.76057 14.3356 6.91555 13.8995L5.60812 13.7156L5.36394 13.6698L5.36394 13.6465Z" fill="#A70A2D"/>
</svg>
