<svg width="20" height="20" viewBox="0 0 20 20" fill="none" xmlns="http://www.w3.org/2000/svg">
<path fill-rule="evenodd" clip-rule="evenodd" d="M18.9198 7.43678C19.1239 7.42636 19.5124 7.38122 19.7522 7.19634C19.9375 7.05224 20.0569 6.83956 19.9723 6.51232C19.8983 6.23108 19.7566 6.08177 19.5998 6.00364C19.3903 5.89947 19.1461 5.92464 18.992 5.94634C18.9207 5.95502 18.869 6.01752 18.8779 6.08697C18.8868 6.15641 18.951 6.20676 19.0223 6.19808C19.1345 6.18766 19.3137 6.16596 19.4625 6.24929C19.557 6.30224 19.6301 6.40467 19.6666 6.58089C19.7022 6.7519 19.6452 6.863 19.5463 6.93244C19.4509 7.00015 19.3235 7.03313 19.205 7.05397C19.082 7.0748 18.967 7.08001 18.8913 7.08001C18.8788 6.97064 18.8627 6.85866 18.8431 6.74581C18.754 6.23106 18.4314 5.82396 17.9599 5.50016C17.4618 5.15814 16.7996 4.9099 16.0537 4.73368C13.767 4.19375 10.7002 4.33786 9.01422 4.67812C7.90824 4.90208 6.83791 5.65034 5.9201 6.49582C4.51379 7.79094 3.46662 9.31957 3.20562 9.63112C2.77429 10.1441 2.31352 11.0391 2.20214 11.237C2.1656 11.3013 2.12906 11.3985 2.09787 11.4992C2.22442 11.4349 2.37057 11.3655 2.5212 11.3065C2.73152 11.2231 2.94719 11.1589 3.12364 11.1485C3.19494 11.1415 3.25821 11.1919 3.26623 11.2613C3.27336 11.3308 3.22167 11.3924 3.15038 11.4002C3.00065 11.4219 2.82331 11.4974 2.64953 11.5825C2.27701 11.7648 1.92765 12.0079 1.92765 12.0079C1.91072 12.0191 1.89289 12.027 1.87329 12.0322C1.69326 12.1259 0.614033 12.6867 0.331519 12.7631C0.240617 12.7874 0.119414 12.8499 0 12.9228C0.798512 12.9454 1.86261 13.099 2.24046 13.1572H2.25829C2.25829 13.1572 2.68072 13.1832 3.05057 13.0643C3.2101 13.0131 3.36338 12.9402 3.45786 12.8126C3.49707 12.7544 3.57728 12.7379 3.63788 12.7761C3.69759 12.8143 3.71452 12.8933 3.67531 12.9514C3.56391 13.1337 3.37142 13.2605 3.1602 13.3473C2.9579 13.4297 2.73777 13.4723 2.56577 13.4948V13.5096C2.56755 13.8516 2.43209 14.6155 2.36168 14.7934C2.32603 14.8846 2.32069 14.9844 2.3091 15.0981C2.29395 15.2413 2.27435 15.4019 2.21107 15.5912C2.1371 15.8143 2.06224 16.0234 1.97222 16.1736C1.89202 16.3082 1.79398 16.4002 1.68704 16.4418L1.67991 16.4444C1.94191 16.5807 2.51228 16.875 2.51317 16.875C2.74487 16.7708 3.38832 16.4809 3.53449 16.3898C3.74125 16.2622 3.98275 16.1901 4.46133 16.1997C4.56828 16.2014 4.72423 16.1372 4.89534 16.0556C5.35608 15.8351 5.89614 15.4618 5.9924 15.4054C6.00131 15.3958 6.14034 15.2431 6.24372 15.1267C6.39255 14.9592 6.56724 14.7917 6.70894 14.7318C6.76419 14.7084 6.83103 14.6216 6.90678 14.5226C7.08324 14.2943 7.2686 13.9827 7.34437 13.8507C7.3818 13.7796 7.43973 13.658 7.48161 13.5287C7.50835 13.4454 7.53152 13.3577 7.53063 13.2796C7.52885 13.125 7.55291 12.9237 7.59301 12.7309C7.63846 12.5174 7.70352 12.316 7.77125 12.198C7.83185 12.0929 7.888 12.0218 7.93791 11.9714C8.00742 11.902 8.06356 11.869 8.1001 11.8499C8.16249 11.8134 8.2418 11.8334 8.27923 11.8933C8.31577 11.9532 8.29528 12.0304 8.23468 12.0669C8.20794 12.0825 8.16605 12.1103 8.11525 12.1745C8.08584 12.2119 8.05465 12.2613 8.02257 12.3256C7.97088 12.4289 7.92899 12.6034 7.90048 12.7856C7.87374 12.9558 7.86037 13.1337 7.86839 13.2691C7.87552 13.3803 7.85413 13.5061 7.82116 13.6259C7.79532 13.7171 7.76323 13.8047 7.73293 13.8777C7.75967 14.0252 7.86305 14.599 7.86305 14.8082C7.86305 15.0695 7.67144 15.6137 7.45576 15.875C7.37823 15.9688 7.31406 16.0816 7.26593 16.1789L7.83541 16.2283L7.97087 15.7986C7.95394 15.8533 8.06979 15.6875 8.06979 15.6875L8.23556 15.5929C8.21952 15.4106 8.18565 14.9731 8.1803 14.6355C8.17674 14.4349 8.18654 14.2657 8.20971 14.1884C8.27566 13.9636 8.50023 13.0547 8.50023 13.0547C8.48686 13.1086 8.59114 12.9384 8.59114 12.9384L8.65887 12.902C8.62233 12.8672 8.58133 12.8308 8.53588 12.7952C8.4735 12.7449 8.40755 12.6945 8.33804 12.6615C8.2712 12.6363 8.23733 12.5626 8.26318 12.4983C8.28902 12.4332 8.36477 12.4002 8.43161 12.4254C8.54836 12.4575 8.66868 12.5183 8.77472 12.5817C8.89682 12.6546 8.99485 12.7327 9.04031 12.7709C9.05189 12.7804 9.06081 12.79 9.06883 12.7995L9.06972 12.7978C9.09734 12.8247 9.11428 12.8586 9.12141 12.895L9.13923 12.902C9.13923 12.902 9.50908 14.244 9.55097 14.4315C9.57503 14.5408 9.70603 14.8325 9.80585 15.1163C9.8816 15.3325 9.93864 15.5452 9.93864 15.6849C9.93864 15.9002 9.88249 16.3099 9.84417 16.5616L10.4306 16.5521L10.4537 16.467L10.5687 16.3429L10.6302 16.3186C10.64 16.2301 10.6507 16.092 10.6436 15.9453C10.6364 15.7969 10.6133 15.6372 10.542 15.5208C10.4163 15.3195 10.378 15.0998 10.3744 14.8386C10.3718 14.6129 10.394 14.3516 10.3905 14.0356C10.3816 13.3742 10.8272 12.375 10.8272 12.375C10.8682 12.2839 10.9769 12.2414 11.0714 12.2813C11.4287 12.4315 11.9643 12.4636 12.4768 12.4532C13.0302 12.4427 13.5596 12.3794 13.8323 12.342C13.9401 12.3056 14.7021 12.0382 15.2956 11.4662C15.6708 11.1033 15.9801 10.6198 15.9997 9.98877C16.0015 9.91846 16.0594 9.86291 16.1316 9.86377C16.2038 9.86551 16.2608 9.92193 16.2599 9.99225C16.2617 10.4263 16.1405 10.8039 15.9542 11.1277C15.9596 11.1424 15.9631 11.1572 15.964 11.1737C15.964 11.1737 16.022 11.8212 16.022 12.0269C16.022 12.2335 15.9435 13.632 15.8749 13.9384C15.8054 14.2518 15.3464 15.1259 15.1727 15.3715C15.121 15.4462 15.096 15.5547 15.0791 15.658C15.0702 15.7118 15.0648 15.7648 15.0613 15.8125L15.6281 15.7761C15.6281 15.7761 15.6512 15.7873 15.8705 15.3368C15.9124 15.2509 15.948 15.217 16.038 15.2413C16.0683 15.25 16.0692 15.2413 16.0692 15.2413C16.0995 15.0018 16.153 14.5521 16.1646 14.336C16.1815 14.0131 16.7358 12.6546 17.2296 12.0904C17.6484 11.6121 19.0458 9.82911 18.9219 7.43935L18.9198 7.43678ZM15.3612 11.8379C14.9788 12.1807 14.5555 12.4125 14.2694 12.547C14.3594 12.7953 14.4708 13.1625 14.4584 13.3587C14.4432 13.5896 14.3675 13.8205 14.2391 14.1347C14.1179 14.4307 13.888 14.9107 13.8274 15.0296C13.8114 15.0618 13.7882 15.1043 13.7641 15.1494H14.2115C14.2561 15.0158 14.3211 14.8178 14.33 14.7727C14.3443 14.6972 14.5038 14.0609 14.5885 13.909C14.6696 13.7632 15.0145 13.0149 15.1838 12.7883C15.3237 12.6017 15.2729 12.3699 15.2729 12.2163C15.2729 12.1512 15.3104 12.0036 15.3612 11.8379Z" fill="#A70A2D"/>
</svg>
